<svg width="48" height="48" viewBox="0 0 48 48" fill="none" xmlns="http://www.w3.org/2000/svg">
<g clip-path="url(#clip0_756_2146)">
<path d="M38.1562 33.4688C35.1838 33.4688 32.7656 31.0506 32.7656 28.0781C32.7656 25.1057 35.1838 22.6875 38.1562 22.6875C41.1287 22.6875 43.5469 25.1057 43.5469 28.0781C43.5469 31.0506 41.1287 33.4688 38.1562 33.4688ZM9.84375 33.4688C6.87131 33.4688 4.45312 31.0506 4.45312 28.0781C4.45312 25.1057 6.87131 22.6875 9.84375 22.6875C12.8162 22.6875 15.2344 25.1057 15.2344 28.0781C15.2344 31.0506 12.8162 33.4688 9.84375 33.4688ZM33.375 3.75C31.598 3.75 30.0004 2.76262 29.2058 1.17338L29.0078 0.777469C28.8911 0.543853 28.7115 0.347376 28.4894 0.210056C28.2672 0.0727359 28.0112 1.70756e-07 27.75 7.51095e-10L20.25 7.51095e-10C19.9888 -8.53367e-06 19.7328 0.0727132 19.5107 0.210016C19.2885 0.347319 19.1089 0.543777 18.9922 0.777375L18.7943 1.17319C17.9996 2.76262 16.402 3.75 14.625 3.75C13.8484 3.75 13.2188 4.37962 13.2188 5.15625V13.181C13.2188 16.336 14.2143 19.3418 16.0976 21.8731C17.981 24.4043 20.5739 26.2216 23.5959 27.1282C23.8595 27.2073 24.1405 27.2073 24.4041 27.1282C27.4261 26.2216 30.019 24.4043 31.9024 21.8731C33.7857 19.3418 34.7812 16.336 34.7812 13.181V5.15625C34.7812 4.37962 34.1516 3.75 33.375 3.75ZM28.9718 11.9364L23.6686 17.2397C23.394 17.5143 23.0341 17.6516 22.6743 17.6516C22.3145 17.6516 21.9545 17.5144 21.68 17.2397L19.0283 14.5881C18.4792 14.0389 18.4792 13.1485 19.0283 12.5993C19.5774 12.0502 20.4679 12.0502 21.0171 12.5993L22.6744 14.2566L26.9833 9.94772C27.5324 9.39853 28.4228 9.39853 28.972 9.94772C29.521 10.4969 29.521 11.3872 28.9718 11.9364ZM43.9069 33.9219C42.4253 35.38 40.3942 36.2812 38.1562 36.2812C35.9147 36.2812 33.8806 35.3772 32.3985 33.9149C31.6112 34.4817 30.9119 35.1617 30.3232 35.9328L31.0959 36.6096C33.438 38.6609 34.7812 41.6166 34.7812 44.7188V48H46.5938C47.3704 48 48 47.3704 48 46.5938V41.9062C48 38.6235 46.3844 35.7113 43.9069 33.9219ZM4.09312 33.9219C1.61559 35.7113 0 38.6235 0 41.9062V46.5938C0 47.3704 0.629625 48 1.40625 48H13.2188V44.7188C13.2188 41.6166 14.562 38.6609 16.9041 36.6096L17.6768 35.9328C17.0881 35.1617 16.3888 34.4817 15.6015 33.9149C14.1194 35.3772 12.0853 36.2812 9.84375 36.2812C7.60575 36.2812 5.57466 35.38 4.09312 33.9219ZM29.2429 38.7253C27.9195 40.1063 26.0591 40.9688 24 40.9688C21.9409 40.9688 20.0805 40.1063 18.7571 38.7253C17.0882 40.1871 16.0312 42.3311 16.0312 44.7188V48H31.9688V44.7188C31.9688 42.3311 30.9118 40.1871 29.2429 38.7253ZM24 38.1562C21.5445 38.1562 19.5469 36.1586 19.5469 33.7031C19.5469 31.2476 21.5445 29.25 24 29.25C26.4555 29.25 28.4531 31.2476 28.4531 33.7031C28.4531 36.1586 26.4555 38.1562 24 38.1562Z" fill="black"/>
</g>
<defs>
<clipPath id="clip0_756_2146">
<rect width="48" height="48" fill="white"/>
</clipPath>
</defs>
</svg>
