<svg width="48" height="48" viewBox="0 0 48 48" fill="none" xmlns="http://www.w3.org/2000/svg">
<path d="M44.5091 23.1272C44.1455 23.5636 43.6364 23.7817 43.1273 23.7817V34.3272C43.1273 34.7636 42.7636 35.0545 42.4 35.0545C41.9636 35.0545 41.6727 34.7636 41.6727 34.3272V23.8545H37.2364C36.8 23.8545 36.3636 23.709 36.0727 23.4908L34.2545 22.1817V30.109C34.2545 30.6181 34.4 31.1272 34.6909 31.5636L38.5455 37.0908C38.6909 37.2363 38.7636 37.3817 38.8364 37.5999L41.9636 44.0726C42.2546 44.7272 42.2546 45.309 41.9636 45.8908C41.7455 46.4726 41.2364 46.909 40.6545 47.1272C40.3636 47.2726 40.0727 47.2726 39.7818 47.2726C38.8364 47.2726 37.9636 46.6908 37.6 45.8181L34.6182 39.5636L30.0364 32.8726L28.5818 38.4726L28.3636 39.1272C28.3636 39.1999 28.2909 39.1999 28.2909 39.1999L22.9091 46.109C22.4727 46.8363 21.7455 47.2726 20.8727 47.2726C20.5091 47.2726 20.0727 47.1999 19.7818 46.9817C18.6182 46.3999 18.1818 44.9454 18.8364 43.7817C18.8364 43.709 18.9091 43.709 18.9091 43.6363L23.7818 37.3817C23.9273 37.1636 24.0727 36.8726 24.1455 36.6545L24.8727 32.7999C25.0909 31.6363 25.1636 30.3999 25.1636 29.2363V21.8181L23.7091 22.5454L24.5818 26.6181C24.7273 27.0545 24.6545 27.5636 24.4364 28.0726C24.2182 28.509 23.7818 28.8726 23.2727 29.0181C22.9818 29.0908 22.8364 29.0908 22.6182 29.0908C21.7455 29.0908 21.0182 28.509 20.7273 27.709L20.5818 27.1999C20.5091 27.1999 20.3636 27.1272 20.2909 27.0545L15.1273 22.6908V45.0908C15.1273 46.3272 14.1091 47.2726 12.9455 47.2726C11.7091 47.2726 10.7636 46.2545 10.7636 45.0908V31.709C10.7636 31.6363 10.7636 31.5636 10.6909 31.5636C10.6182 31.4908 10.3273 31.4908 10.2545 31.709C9.67273 34.6908 7.34546 45.5272 7.34546 45.6726V45.7454C6.90909 46.8363 5.67273 47.4908 4.50909 47.0545C3.92727 46.8363 3.49091 46.4726 3.27273 45.9636C3.05455 45.4545 2.98182 44.8726 3.2 44.3636L5.30909 33.8908C5.52727 32.6545 5.74546 31.7817 5.81818 30.8363C5.6 30.909 5.38182 30.909 5.16364 30.909H4.8C3.78182 30.7636 2.98182 29.7454 2.98182 28.6545V19.4181C2.98182 17.3817 4.65455 15.7817 6.61818 15.7817H11.3455C12.8727 15.7817 14.4 16.3636 15.5636 17.3817L19.2 20.509C19.3455 20.2181 19.5636 19.9999 19.8545 19.8545L24.7273 16.8726C25.3091 16.509 26.0364 16.2908 26.8364 16.2908H32.4364C33.3091 16.2908 34.1818 16.5817 34.8364 17.0908L38.6182 19.9272H41.6V7.78173C41.3818 7.85446 41.0909 7.92719 40.8727 7.92719C40 7.92719 39.2 7.56355 38.5455 7.27264C37.3091 6.69082 36.6545 6.47264 35.9273 7.12719C35.7091 7.34537 35.4182 7.34537 35.1273 7.27264C34.8364 7.12719 34.6909 6.90901 34.6909 6.6181V2.10901C34.6909 1.89082 34.7636 1.74537 34.9091 1.59992C36.4364 0.218097 38.0364 0.94537 39.2 1.45446C40.4364 2.03628 41.0909 2.32719 41.8182 1.59992C41.9636 1.45446 42.0364 1.45446 42.1091 1.38173H42.4727C42.5455 1.38173 42.6182 1.38173 42.6909 1.45446C42.7636 1.45446 42.8364 1.45446 42.9091 1.52719L42.9818 1.59992C42.9818 1.67264 43.0546 1.67264 43.0546 1.74537V1.8181C43.0546 1.89082 43.1273 1.96355 43.1273 2.03628V19.9272C44 19.9999 44.8 20.6545 44.9455 21.5272C45.0909 22.109 44.8727 22.6908 44.5091 23.1272Z" fill="black"/>
<path d="M25.5273 10.6908C25.5273 8.36357 27.4182 6.47266 29.7455 6.47266C32.0727 6.47266 33.9636 8.36357 33.9636 10.6908C33.9636 13.0181 32.0727 14.909 29.7455 14.909C27.4182 14.8363 25.5273 12.9454 25.5273 10.6908ZM6.32727 10.2545C6.32727 8.14538 8 6.47266 10.1091 6.47266C12.2182 6.47266 13.8909 8.14538 13.8909 10.2545C13.8909 12.3636 12.2182 14.0363 10.1091 14.0363C8.07273 14.0363 6.32727 12.3636 6.32727 10.2545Z" fill="black"/>
</svg>
