<svg width="20" height="20" viewBox="0 0 20 20" fill="none" xmlns="http://www.w3.org/2000/svg">
<path d="M5 11.25V3.125M5 11.25C5.33152 11.25 5.64946 11.3817 5.88388 11.6161C6.1183 11.8505 6.25 12.1685 6.25 12.5C6.25 12.8315 6.1183 13.1495 5.88388 13.3839C5.64946 13.6183 5.33152 13.75 5 13.75M5 11.25C4.66848 11.25 4.35054 11.3817 4.11612 11.6161C3.8817 11.8505 3.75 12.1685 3.75 12.5C3.75 12.8315 3.8817 13.1495 4.11612 13.3839C4.35054 13.6183 4.66848 13.75 5 13.75M5 13.75V16.875M15 11.25V3.125M15 11.25C15.3315 11.25 15.6495 11.3817 15.8839 11.6161C16.1183 11.8505 16.25 12.1685 16.25 12.5C16.25 12.8315 16.1183 13.1495 15.8839 13.3839C15.6495 13.6183 15.3315 13.75 15 13.75M15 11.25C14.6685 11.25 14.3505 11.3817 14.1161 11.6161C13.8817 11.8505 13.75 12.1685 13.75 12.5C13.75 12.8315 13.8817 13.1495 14.1161 13.3839C14.3505 13.6183 14.6685 13.75 15 13.75M15 13.75V16.875M10 6.25V3.125M10 6.25C10.3315 6.25 10.6495 6.3817 10.8839 6.61612C11.1183 6.85054 11.25 7.16848 11.25 7.5C11.25 7.83152 11.1183 8.14946 10.8839 8.38388C10.6495 8.6183 10.3315 8.75 10 8.75M10 6.25C9.66848 6.25 9.35054 6.3817 9.11612 6.61612C8.8817 6.85054 8.75 7.16848 8.75 7.5C8.75 7.83152 8.8817 8.14946 9.11612 8.38388C9.35054 8.6183 9.66848 8.75 10 8.75M10 8.75V16.875" stroke="#FBFBFB" stroke-width="1.2" stroke-linecap="round" stroke-linejoin="round"/>
</svg>
